<svg xmlns="http://www.w3.org/2000/svg" width="438" height="323" fill="none"><path fill="#2A5EBC" d="M61.05 134.374c.772 1.813 3.427 2.418 5.93 1.353 2.503-1.065 3.907-3.398 3.136-5.211-.772-1.812-3.426-2.418-5.93-1.352-2.503 1.065-3.907 3.398-3.135 5.21ZM115.272 60.202c.381 1.707 2.233 2.747 4.137 2.322 1.904-.425 3.138-2.154 2.757-3.86-.382-1.708-2.234-2.747-4.137-2.322-1.904.425-3.138 2.153-2.757 3.86ZM2.814 139.872c2.038.639 4.625-1.821 5.777-5.495 1.153-3.674.435-7.171-1.604-7.81-2.038-.639-4.624 1.821-5.777 5.495-1.152 3.674-.434 7.17 1.604 7.81ZM422.837 91.108c2.47 1.213 5.076.966 5.822-.552.746-1.518-.652-3.732-3.121-4.945-2.47-1.213-5.076-.966-5.822.551-.745 1.518.652 3.732 3.121 4.946ZM402.49 122.831c-.646 3.678.486 6.951 2.529 7.31s4.223-2.332 4.869-6.01c.647-3.678-.486-6.95-2.529-7.309-2.042-.359-4.222 2.331-4.869 6.009ZM399.389 139.641c2.762 2.616 6.358 3.304 8.032 1.537 1.674-1.767.792-5.321-1.97-7.936-2.762-2.616-6.358-3.304-8.032-1.537-1.673 1.767-.791 5.32 1.97 7.936ZM431.665 64.99c2.14 1.052 4.552.524 5.388-1.178.836-1.702-.22-3.934-2.36-4.985-2.139-1.051-4.552-.523-5.388 1.178-.836 1.702.221 3.934 2.36 4.985ZM422.882 98.712c.705 1.656 3.129 2.209 5.415 1.236 2.286-.972 3.568-3.103 2.863-4.76-.704-1.655-3.129-2.208-5.415-1.236-2.286.974-3.568 3.104-2.863 4.76ZM339.95 82.156c1.366 1.069 3.828.202 5.499-1.935 1.671-2.137 1.918-4.735.553-5.803-1.366-1.068-3.828-.202-5.499 1.935-1.671 2.137-1.918 4.736-.553 5.803ZM47.226 105.071c3.262 2.168 6.986 2.301 8.318.296 1.333-2.004-.23-5.387-3.492-7.555-3.261-2.168-6.986-2.3-8.318-.296-1.333 2.004.23 5.387 3.492 7.555ZM203.155 262.514c2.027.636 4.598-1.806 5.742-5.454 1.145-3.648.429-7.121-1.598-7.757-2.027-.636-4.598 1.806-5.743 5.455-1.144 3.648-.428 7.121 1.599 7.756ZM56.054 83.107c2.072 1.377 4.561 1.277 5.56-.225.998-1.502.127-3.836-1.945-5.214-2.072-1.377-4.561-1.277-5.56.225-.998 1.502-.127 3.836 1.945 5.214ZM55.787 131.027c1.963 1.305 4.396 1.095 5.435-.468 1.04-1.563.29-3.887-1.672-5.192-1.963-1.305-4.396-1.095-5.435.468-1.04 1.563-.29 3.887 1.672 5.192ZM191.076 58.01c.861 1.446 3.47 1.48 5.827.078 2.358-1.404 3.571-3.714 2.71-5.16-.861-1.447-3.47-1.482-5.828-.079-2.357 1.404-3.571 3.714-2.709 5.16ZM131.773 70.074c2.713 1.333 5.576 1.062 6.395-.605s-.716-4.1-3.428-5.432c-2.713-1.333-5.576-1.062-6.395.605-.819 1.668.716 4.1 3.428 5.432ZM116.163 149.917c1.368 1.952 5.211 1.619 8.582-.745 3.371-2.364 4.995-5.863 3.627-7.814-1.369-1.952-5.211-1.618-8.583.745-3.371 2.364-4.995 5.863-3.626 7.814ZM219.542 177.486c2.064 2.944 7.86 2.439 12.945-1.126 5.086-3.566 7.536-8.843 5.472-11.786-2.064-2.944-7.86-2.44-12.945 1.126-5.086 3.565-7.536 8.842-5.472 11.786ZM159.248 139.339c1.285.283 2.713-1.244 3.189-3.41.476-2.166-.18-4.15-1.465-4.433-1.285-.282-2.713 1.245-3.189 3.41-.476 2.166.18 4.151 1.465 4.433ZM118.051 87.432c2.22 1.09 4.659.67 5.45-.938.79-1.608-.369-3.795-2.588-4.886-2.22-1.09-4.66-.67-5.45.938s.369 3.795 2.588 4.886ZM257.517 179.193c2.108 1.036 4.424.639 5.174-.885.749-1.525-.353-3.601-2.461-4.637-2.109-1.036-4.425-.639-5.174.886-.749 1.524.352 3.6 2.461 4.636ZM157.854 130.116c2.985 1.763 7.642-.594 10.401-5.266 2.759-4.672 2.576-9.888-.41-11.651-2.986-1.764-7.642.594-10.401 5.266-2.759 4.671-2.576 9.888.41 11.651ZM156.325 86.84c2.363 2.238 5.439 2.827 6.87 1.315 1.432-1.511.677-4.55-1.686-6.789-2.363-2.238-5.439-2.827-6.87-1.315-1.432 1.511-.677 4.551 1.686 6.789ZM133.917 85.754c.809 1.9 3.598 2.534 6.229 1.414 2.632-1.12 4.109-3.569 3.3-5.47-.81-1.902-3.599-2.535-6.23-1.415-2.632 1.12-4.109 3.569-3.299 5.47ZM101.88 84.57c1.358 2.281 5.47 2.338 9.185.127 3.714-2.211 5.624-5.853 4.266-8.134-1.358-2.281-5.47-2.338-9.184-.127-3.714 2.211-5.625 5.853-4.267 8.134ZM42.597 153.152c1.628 2.323 6.2 1.925 10.212-.887 4.012-2.813 5.944-6.975 4.315-9.298-1.628-2.323-6.2-1.926-10.212.887-4.011 2.812-5.943 6.975-4.315 9.298ZM104.172 65.022c.879 2.065 3.895 2.76 6.737 1.55 2.841-1.21 4.432-3.864 3.553-5.93-.879-2.065-3.895-2.759-6.736-1.55-2.842 1.21-4.433 3.865-3.554 5.93ZM64.124 115.478c-.664 3.781.5 7.145 2.6 7.514 2.1.369 4.34-2.397 5.005-6.178s-.5-7.145-2.6-7.514c-2.1-.369-4.34 2.397-5.005 6.178ZM69.982 96.857c2.053 1.009 4.309.621 5.04-.865.73-1.487-.342-3.51-2.395-4.518-2.053-1.009-4.309-.621-5.04.865-.73 1.487.342 3.51 2.395 4.518Z"/><path fill="#2A5EBC" d="M102.458 93.469c2.664 2.527 6.132 3.196 7.748 1.494 1.615-1.702.765-5.131-1.899-7.659-2.664-2.527-6.133-3.196-7.748-1.494-1.615 1.702-.765 5.131 1.899 7.659ZM79.06 99.043c.777 1.849 3.48 2.477 6.038 1.404 2.559-1.074 4.004-3.444 3.227-5.293-.776-1.85-3.48-2.478-6.038-1.404-2.558 1.073-4.003 3.443-3.226 5.293ZM72.437 119.645c.09 2.916 1.706 5.233 3.609 5.174 1.903-.059 3.372-2.471 3.282-5.387-.09-2.917-1.706-5.233-3.61-5.174-1.902.059-3.372 2.471-3.281 5.387ZM149.934 145.562c.846 1.619 3.801 1.746 6.6.284 2.798-1.462 4.382-3.96 3.536-5.579-.846-1.619-3.8-1.746-6.599-.284-2.799 1.463-4.382 3.96-3.537 5.579ZM123.297 164.923c1.256.983 3.523.182 5.063-1.787 1.54-1.969 1.77-4.362.514-5.344-1.256-.982-3.522-.182-5.062 1.787-1.54 1.97-1.771 4.362-.515 5.344ZM103.534 169.784c-.269 2.703.942 5.037 2.706 5.213 1.764.175 3.411-1.874 3.681-4.577.269-2.703-.943-5.037-2.707-5.213-1.763-.175-3.411 1.874-3.68 4.577ZM129.604 54.101c.669 1.553 3.26 1.93 5.787.841 2.527-1.088 4.033-3.23 3.364-4.783-.669-1.553-3.26-1.93-5.787-.841s-4.033 3.23-3.364 4.783ZM151.059 49.022c4.879 3.244 10.449 3.444 12.442.447 1.992-2.998-.348-8.057-5.227-11.3-4.879-3.244-10.45-3.444-12.442-.447-1.993 2.998.347 8.057 5.227 11.3Z"/><path fill="#2A5EBC" d="M140.99 54.02c1.889 1.255 4.229 1.056 5.227-.446.999-1.502.277-3.737-1.612-4.992-1.888-1.256-4.228-1.056-5.227.446-.998 1.501-.276 3.736 1.612 4.992ZM279.491 188.14c2.017 1.341 4.518 1.127 5.584-.477 1.067-1.605.297-3.994-1.721-5.335-2.017-1.341-4.517-1.127-5.584.478-1.067 1.605-.297 3.993 1.721 5.334ZM186.395 163.765c1.271 2.134 5.118 2.188 8.593.12 3.475-2.069 5.262-5.476 3.991-7.611-1.271-2.135-5.118-2.189-8.593-.12-3.475 2.068-5.262 5.476-3.991 7.611ZM238.27 190.288c2.401 1.179 4.933.941 5.656-.531.724-1.473-.635-3.623-3.035-4.802-2.4-1.179-4.933-.941-5.656.532-.724 1.472.635 3.622 3.035 4.801ZM225.724 253.072c1.069 1.524 4.072 1.262 6.709-.587 2.636-1.848 3.907-4.582 2.838-6.106-1.068-1.524-4.072-1.261-6.708.587-2.636 1.848-3.907 4.582-2.839 6.106ZM273.483 225.415c1.387.305 2.927-1.341 3.441-3.677.513-2.336-.195-4.476-1.582-4.781-1.388-.305-2.928 1.341-3.442 3.677-.513 2.336.195 4.477 1.583 4.781ZM220.676 225.966c-1.084 6.17.815 11.661 4.241 12.263 3.427.602 7.083-3.912 8.168-10.083 1.084-6.171-.815-11.661-4.241-12.263-3.427-.602-7.084 3.912-8.168 10.083ZM230.906 199.381c2.136 1.049 4.483.647 5.243-.899.759-1.545-.357-3.649-2.493-4.699-2.136-1.049-4.483-.647-5.243.899-.759 1.545.357 3.649 2.493 4.699ZM265.408 243.122c1.482.876 3.796-.297 5.168-2.62 1.372-2.322 1.281-4.915-.201-5.79-1.483-.876-3.797.297-5.169 2.619-1.371 2.323-1.281 4.915.202 5.791ZM154.944 168.765c4.431 2.178 9.428 1.085 11.16-2.44 1.732-3.526-.456-8.149-4.888-10.326-4.432-2.178-9.429-1.085-11.161 2.44-1.732 3.526.457 8.149 4.889 10.326ZM244.988 237.648c.088 2.851 1.668 5.115 3.529 5.057 1.86-.057 3.297-2.415 3.208-5.266-.088-2.851-1.668-5.115-3.528-5.057-1.861.057-3.297 2.415-3.209 5.266ZM191.582 260.672c.909 1.526 3.659 1.565 6.143.086 2.484-1.479 3.761-3.915 2.852-5.441-.908-1.526-3.659-1.565-6.143-.086-2.484 1.479-3.761 3.915-2.852 5.441ZM183.765 201.067c2.48 1.218 5.097.97 5.846-.555.749-1.525-.654-3.748-3.134-4.967-2.48-1.218-5.097-.97-5.846.555-.749 1.525.654 3.748 3.134 4.967ZM370.005 200.454c2.445 1.202 5.025.959 5.762-.541.737-1.501-.647-3.691-3.092-4.892-2.446-1.202-5.025-.959-5.763.541-.737 1.501.648 3.691 3.093 4.892ZM172.045 258.859c1.477 2.107 5.626 1.746 9.267-.806 3.641-2.553 5.395-6.33 3.917-8.437-1.477-2.108-5.626-1.747-9.267.806-3.641 2.553-5.394 6.33-3.917 8.437ZM120.674 177.186c5.59 1.754 10.912.658 11.886-2.447.974-3.106-2.768-7.044-8.359-8.798-5.59-1.754-10.912-.658-11.886 2.448-.974 3.105 2.768 7.044 8.359 8.797ZM82.72 178.486c2.035 1 4.273.614 4.999-.862.725-1.476-.337-3.483-2.373-4.483-2.035-1-4.273-.614-4.998.862-.725 1.476.337 3.483 2.372 4.483ZM219.427 259.884c1.443.852 3.694-.289 5.029-2.548 1.334-2.259 1.246-4.781-.197-5.633-1.443-.852-3.694.288-5.028 2.548-1.334 2.259-1.246 4.781.196 5.633ZM123.519 212.497c1.119 1.597 4.262 1.325 7.019-.608 2.756-1.932 4.083-4.794 2.964-6.391-1.12-1.597-4.262-1.325-7.019.608-2.757 1.933-4.084 4.794-2.964 6.391Z"/><path fill="#2A5EBC" d="M117.392 219.261c1.479.874 3.787-.295 5.155-2.611 1.368-2.316 1.277-4.901-.202-5.775-1.48-.874-3.788.295-5.156 2.611-1.367 2.316-1.277 4.902.203 5.775ZM25.05 204.283c1.063 1.518 4.055 1.255 6.682-.586 2.627-1.842 3.894-4.565 2.83-6.083-1.064-1.518-4.057-1.255-6.683.586-2.627 1.842-3.894 4.565-2.83 6.083ZM18.74 211.137c1.452.858 3.718-.288 5.06-2.561 1.342-2.272 1.252-4.81-.2-5.668-1.453-.858-3.72.289-5.061 2.561-1.342 2.273-1.253 4.81.2 5.668ZM200.514 175.313c1.075 1.534 4.097 1.27 6.749-.59 2.652-1.859 3.931-4.61 2.855-6.144-1.075-1.533-4.097-1.269-6.749.59-2.652 1.86-3.93 4.61-2.855 6.144ZM194.257 182.111c1.447.854 3.702-.288 5.038-2.55 1.337-2.263 1.247-4.789-.199-5.643-1.446-.854-3.701.287-5.038 2.55-1.336 2.262-1.247 4.789.199 5.643ZM363.064 109.369c1.033 1.474 3.933 1.222 6.477-.562 2.545-1.784 3.77-4.425 2.737-5.898-1.033-1.473-3.933-1.222-6.478.562-2.544 1.784-3.769 4.425-2.736 5.898ZM356.544 116.391c1.476.872 3.778-.294 5.142-2.603 1.363-2.309 1.272-4.888-.204-5.759-1.476-.872-3.778.293-5.142 2.602-1.364 2.309-1.273 4.888.204 5.76ZM211.071 216.337c2.38 2.254 5.476 2.849 6.916 1.329 1.439-1.52.677-4.58-1.703-6.834-2.379-2.254-5.476-2.849-6.915-1.329-1.44 1.52-.678 4.58 1.702 6.834ZM216.644 192.064c3.751 1.843 7.98.918 9.446-2.066 1.466-2.983-.386-6.896-4.138-8.739-3.751-1.843-7.98-.918-9.446 2.065-1.466 2.984.387 6.897 4.138 8.74ZM189.973 221c.791 1.858 3.514 2.479 6.081 1.387 2.567-1.093 4.007-3.486 3.216-5.344-.791-1.859-3.513-2.48-6.081-1.387-2.567 1.092-4.007 3.485-3.216 5.344ZM147.969 278.652c.122 3.938 2.303 7.066 4.872 6.986 2.568-.08 4.551-3.336 4.429-7.274-.122-3.937-2.303-7.065-4.871-6.985-2.568.079-4.552 3.336-4.43 7.273ZM409.244 90.83c.828 1.584 3.718 1.71 6.455.28s4.285-3.874 3.457-5.459c-.828-1.584-3.718-1.71-6.455-.28s-4.285 3.874-3.457 5.459ZM194.427 296.419c.33 1.793 1.489 3.082 2.589 2.879 1.1-.202 1.724-1.82 1.394-3.612-.33-1.793-1.49-3.082-2.59-2.879-1.099.202-1.723 1.82-1.393 3.612ZM170.477 293.458c1.288.465 2.969-.919 3.753-3.092.784-2.173.375-4.312-.913-4.777-1.289-.465-2.969.919-3.753 3.093-.785 2.173-.376 4.311.913 4.776ZM211.099 297.359c1.842.577 4.179-1.642 5.219-4.958 1.04-3.316.39-6.472-1.453-7.05-1.842-.578-4.179 1.641-5.219 4.957s-.39 6.473 1.453 7.051ZM208.036 317.091c2.004 1.332 4.411 1.237 5.375-.213.964-1.451.121-3.706-1.884-5.039-2.004-1.333-4.411-1.237-5.375.213-.964 1.45-.121 3.706 1.884 5.039ZM175.513 283.886c1.302 1.018 3.65.19 5.245-1.85 1.595-2.039 1.832-4.518.531-5.535-1.302-1.018-3.65-.19-5.245 1.849-1.595 2.04-1.832 4.518-.531 5.536ZM310.208 201.316c2.102 1.397 4.625 1.296 5.636-.225 1.011-1.521.128-3.887-1.974-5.284-2.101-1.396-4.624-1.296-5.635.225-1.011 1.522-.128 3.887 1.973 5.284ZM298.605 209.249c.769 2.754 4.481 4.125 8.29 3.061 3.809-1.064 6.274-4.159 5.504-6.914-.769-2.754-4.481-4.125-8.29-3.061-3.809 1.064-6.273 4.16-5.504 6.914ZM384.287 61.48c.862 2 4.2 2.486 7.456 1.084 3.255-1.403 5.196-4.162 4.334-6.163-.862-2-4.2-2.486-7.456-1.083-3.255 1.402-5.195 4.161-4.334 6.162ZM184.866 237.609c2.173 1.07 4.563.663 5.337-.909.775-1.573-.359-3.716-2.532-4.786-2.173-1.071-4.563-.664-5.337.909-.775 1.573.359 3.715 2.532 4.786ZM176.506 230.724c.659 1.528 3.209 1.898 5.697.826 2.488-1.071 3.971-3.179 3.313-4.707-.658-1.529-3.209-1.899-5.697-.827s-3.971 3.179-3.313 4.708ZM89.874 72.201c2.167 1.065 4.55.655 5.321-.914.771-1.57-.36-3.706-2.528-4.771-2.167-1.065-4.55-.656-5.32.914-.772 1.57.36 3.706 2.527 4.771ZM81.15 65.473c.665 1.542 3.24 1.915 5.753.833s4.011-3.21 3.347-4.753c-.665-1.542-3.24-1.915-5.753-.833-2.513 1.083-4.011 3.21-3.347 4.753ZM249.084 321.083c3.049 2.026 6.529 2.151 7.774.279 1.245-1.872-.218-5.033-3.267-7.06-3.048-2.027-6.529-2.152-7.773-.279-1.245 1.872.217 5.033 3.266 7.06ZM263.14 272.967c.973 1.862 4.37 2.009 7.588.329 3.217-1.681 5.036-4.554 4.063-6.416-.973-1.863-4.37-2.01-7.587-.329-3.217 1.681-5.037 4.553-4.064 6.416ZM225.704 295.676c2.737.988 6.307-1.953 7.973-6.568 1.665-4.616.797-9.158-1.94-10.146-2.738-.988-6.307 1.953-7.973 6.568-1.666 4.616-.797 9.158 1.94 10.146ZM240.104 266.319c1.665 1.911 5.726 1.098 9.069-1.816 3.343-2.914 4.703-6.825 3.038-8.736-1.666-1.911-5.726-1.098-9.069 1.816-3.344 2.914-4.704 6.825-3.038 8.736ZM272.985 287.126c2.119.664 4.807-1.889 6.004-5.703 1.196-3.814.448-7.445-1.671-8.11-2.12-.665-4.808 1.888-6.004 5.702-1.197 3.815-.449 7.446 1.671 8.111ZM330.133 22.43c.911 1.742 4.09 1.88 7.101.306 3.012-1.573 4.715-4.261 3.805-6.004-.91-1.742-4.09-1.88-7.101-.306-3.012 1.573-4.715 4.261-3.805 6.004ZM339.457 37.334c2.282.715 5.178-2.039 6.468-6.152 1.29-4.114.486-8.028-1.796-8.744-2.282-.716-5.177 2.038-6.468 6.152-1.29 4.113-.486 8.028 1.796 8.744ZM253.023 310.741c3.826 2.543 8.42 2.358 10.263-.413 1.842-2.772.235-7.08-3.591-9.623-3.825-2.543-8.42-2.358-10.262.414-1.843 2.771-.235 7.079 3.59 9.622ZM232.46 272.295c1.229.961 3.444.18 4.948-1.744 1.505-1.923 1.728-4.261.5-5.222-1.229-.961-3.444-.18-4.948 1.743-1.505 1.924-1.728 4.262-.5 5.223ZM165.225 265.882c1.231.963 3.451.182 4.958-1.745 1.506-1.927 1.729-4.269.498-5.232-1.232-.963-3.452-.182-4.958 1.744-1.507 1.927-1.73 4.27-.498 5.233ZM223.902 310.174c2.101 2.585 5.146 3.591 6.801 2.246 1.655-1.345 1.292-4.531-.809-7.117-2.102-2.585-5.147-3.591-6.801-2.246-1.655 1.345-1.293 4.531.809 7.117ZM239.549 298.22c.653 2.341 3.806 3.506 7.041 2.602 3.235-.904 5.328-3.534 4.674-5.874-.653-2.341-3.806-3.506-7.041-2.602-3.236.903-5.328 3.533-4.674 5.874ZM83.468 91.304c3.845 2.555 8.462 2.37 10.313-.414 1.851-2.785.235-7.114-3.61-9.67-3.844-2.555-8.462-2.37-10.313.414-1.85 2.785-.234 7.114 3.61 9.67ZM69.624 78.869c.697 2.497 4.06 3.74 7.512 2.776 3.451-.964 5.684-3.77 4.986-6.267-.697-2.497-4.06-3.74-7.512-2.776-3.451.964-5.684 3.77-4.986 6.267ZM169.209 219.694c3.713 2.468 8.171 2.289 9.957-.398 1.787-2.688.226-6.868-3.487-9.336-3.712-2.468-8.17-2.29-9.957.398-1.787 2.688-.226 6.867 3.487 9.336ZM155.354 207.405c.685 2.453 3.987 3.674 7.375 2.727 3.388-.946 5.579-3.701 4.894-6.154-.685-2.452-3.986-3.673-7.374-2.727-3.388.946-5.58 3.702-4.895 6.154ZM278.503 211.867c3.767 2.504 8.293 2.322 10.107-.408 1.815-2.729.232-6.972-3.536-9.477-3.767-2.504-8.292-2.322-10.107.408-1.814 2.729-.231 6.972 3.536 9.477ZM265.126 199.39c.637 2.281 3.709 3.416 6.862 2.535 3.154-.88 5.193-3.443 4.556-5.724-.637-2.281-3.709-3.417-6.863-2.536-3.153.881-5.193 3.444-4.555 5.725ZM248.488 224.104c3.845 2.556 8.462 2.371 10.313-.413 1.851-2.785.235-7.114-3.61-9.67-3.844-2.556-8.462-2.371-10.313.414-1.851 2.784-.235 7.113 3.61 9.669ZM235.127 211.535c.643 2.3 3.741 3.444 6.92 2.556 3.179-.887 5.236-3.472 4.594-5.771-.643-2.3-3.741-3.444-6.92-2.556-3.179.888-5.236 3.472-4.594 5.771ZM282.394 123.801c2.733 1.816 6.015 1.685 7.33-.294 1.316-1.978.167-5.055-2.566-6.872-2.733-1.817-6.015-1.685-7.33.293-1.316 1.979-.167 5.056 2.566 6.873ZM324.38 152.896c2.733 1.816 6.015 1.685 7.33-.294 1.316-1.978.166-5.055-2.566-6.872-2.733-1.817-6.015-1.686-7.33.293-1.316 1.979-.167 5.056 2.566 6.873ZM249.754 273.822c-.269 2.7.94 5.03 2.699 5.205 1.76.176 3.405-1.871 3.673-4.57.269-2.7-.94-5.03-2.699-5.205-1.76-.175-3.405 1.871-3.673 4.57ZM306.286 253.49c1.999.985 4.198.61 4.911-.837.714-1.448-.329-3.42-2.329-4.405-1.999-.985-4.199-.61-4.912.837-.713 1.448.33 3.42 2.33 4.405Z"/><path fill="#2A5EBC" d="M163.01 200.48c1.513.894 3.873-.303 5.273-2.672 1.399-2.369 1.307-5.014-.206-5.907-1.513-.894-3.874.303-5.273 2.672-1.399 2.369-1.307 5.014.206 5.907ZM172.869 182.613c.804 1.54 3.617 1.66 6.282.268 2.665-1.393 4.174-3.77 3.369-5.31-.805-1.54-3.617-1.66-6.282-.267-2.666 1.392-4.174 3.769-3.369 5.309ZM159.789 181.178c1.414 1.107 3.966.207 5.699-2.01 1.733-2.216 1.991-4.909.577-6.015-1.415-1.106-3.967-.206-5.7 2.01-1.733 2.216-1.991 4.909-.576 6.015ZM75.803 215.803c4.56 2.241 9.703 1.115 11.486-2.515 1.784-3.629-.468-8.388-5.028-10.628-4.56-2.241-9.703-1.115-11.486 2.515-1.784 3.629.468 8.388 5.028 10.628ZM81.672 227.716c1.314 1.028 3.684.193 5.293-1.865s1.848-4.559.534-5.586c-1.314-1.028-3.683-.192-5.292 1.865-1.61 2.058-1.849 4.559-.535 5.586ZM143.313 180.343c-.263 2.638.92 4.915 2.641 5.087 1.722.171 3.33-1.828 3.592-4.466.263-2.638-.92-4.915-2.641-5.087-1.721-.171-3.329 1.828-3.592 4.466ZM327.9 196.945c.989 1.41 3.766 1.168 6.202-.541 2.437-1.708 3.611-4.236 2.622-5.646-.988-1.41-3.765-1.168-6.202.54-2.436 1.709-3.61 4.237-2.622 5.647ZM290.354 199.427c1.015 1.448 3.87 1.197 6.377-.56 2.506-1.757 3.715-4.356 2.7-5.804-1.016-1.448-3.871-1.197-6.377.56-2.506 1.757-3.715 4.356-2.7 5.804ZM171.744 150.493c-.615 3.496.46 6.605 2.4 6.946 1.94.341 4.011-2.216 4.625-5.711.614-3.495-.461-6.605-2.401-6.946-1.94-.341-4.01 2.216-4.624 5.711ZM321.369 197.84c1.489.88 3.812-.295 5.188-2.624 1.375-2.329 1.283-4.931-.207-5.81-1.489-.88-3.812.295-5.187 2.624-1.376 2.33-1.284 4.931.206 5.81ZM290.569 181.855c.124 4.015 2.348 7.204 4.967 7.123 2.618-.081 4.64-3.401 4.516-7.416-.125-4.015-2.348-7.204-4.967-7.123-2.619.081-4.641 3.401-4.516 7.416ZM306.962 273.947c3.677 2.444 7.875 2.594 9.377.335 1.502-2.259-.262-6.072-3.939-8.516-3.677-2.445-7.875-2.595-9.377-.336-1.502 2.259.262 6.072 3.939 8.517ZM323.998 214.313c.776 1.486 3.487 1.602 6.056.259 2.569-1.342 4.023-3.634 3.247-5.119-.776-1.485-3.488-1.601-6.057-.259-2.569 1.342-4.022 3.634-3.246 5.119ZM281.468 101.157c.325 1.769 1.472 3.042 2.56 2.841 1.089-.2 1.707-1.798 1.381-3.567-.326-1.77-1.472-3.042-2.561-2.842-1.088.2-1.706 1.798-1.38 3.568ZM319.53 242.852c1.975.62 4.482-1.763 5.598-5.323 1.117-3.559.42-6.947-1.555-7.567-1.976-.62-4.482 1.764-5.599 5.323-1.116 3.56-.42 6.948 1.556 7.567Z"/><path fill="#2A5EBC" d="M319.726 248.59c1.946 1.294 4.285 1.199 5.223-.212.939-1.412.122-3.605-1.825-4.899-1.946-1.294-4.285-1.199-5.223.213-.939 1.411-.122 3.604 1.825 4.898ZM286.117 222.265c1.341 1.049 3.76.197 5.403-1.903 1.642-2.101 1.886-4.654.545-5.703-1.341-1.049-3.76-.196-5.402 1.904-1.643 2.101-1.887 4.654-.546 5.702ZM371.464 133.882c1.408 1.101 3.947.207 5.67-1.997 1.724-2.204 1.979-4.883.571-5.985-1.408-1.101-3.947-.207-5.671 1.997-1.723 2.204-1.979 4.883-.57 5.985ZM280.209 258.287c2.346 2.885 5.745 4.008 7.592 2.507 1.846-1.501 1.442-5.058-.904-7.944-2.345-2.885-5.744-4.008-7.591-2.507-1.847 1.501-1.442 5.058.903 7.944ZM290.632 275.092c2.281 1.517 5.109 1.276 6.315-.538 1.206-1.815.334-4.515-1.947-6.032-2.282-1.517-5.109-1.276-6.316.539-1.206 1.814-.334 4.515 1.948 6.031ZM306.61 222.098c-.523 5.256 1.831 9.794 5.258 10.135 3.428.341 6.63-3.643 7.154-8.9.523-5.256-1.831-9.794-5.259-10.135-3.427-.341-6.629 3.643-7.153 8.9ZM333.07 231.919c1.147.414 2.641-.815 3.337-2.744.696-1.929.331-3.829-.815-4.243-1.147-.413-2.641.815-3.337 2.744-.696 1.93-.331 3.829.815 4.243ZM336.108 214.244c1.35 1.056 3.786.197 5.441-1.919 1.654-2.115 1.901-4.687.55-5.743-1.35-1.056-3.786-.197-5.441 1.919-1.654 2.116-1.9 4.687-.55 5.743ZM336.279 243.876c2.063 2.538 5.049 3.526 6.671 2.208 1.621-1.318 1.264-4.443-.799-6.981-2.062-2.537-5.049-3.526-6.67-2.208-1.622 1.318-1.264 4.444.798 6.981ZM253.242 255.578c2.076 1.38 4.648 1.161 5.745-.489 1.096-1.65.303-4.106-1.772-5.486-2.076-1.38-4.647-1.161-5.744.489-1.097 1.65-.304 4.106 1.771 5.486ZM337.629 232.012c.733 2.628 4.271 3.936 7.902 2.922 3.63-1.014 5.978-3.966 5.244-6.594s-4.272-3.936-7.902-2.922c-3.63 1.014-5.978 3.966-5.244 6.594ZM152.665 109.125c1.959 1.303 4.313 1.207 5.258-.214.945-1.422.123-3.63-1.837-4.932-1.959-1.303-4.314-1.207-5.258.215-.945 1.421-.123 3.629 1.837 4.931ZM173.101 89.051c1.215.44 2.801-.867 3.54-2.916.74-2.05.354-4.066-.862-4.505-1.216-.439-2.801.867-3.54 2.916-.74 2.05-.354 4.066.862 4.505ZM176.369 100.784c2.065 2.541 5.056 3.53 6.68 2.209 1.625-1.32 1.268-4.45-.797-6.99-2.065-2.541-5.056-3.53-6.681-2.21-1.624 1.32-1.267 4.45.798 6.991ZM177.441 88.989c.764 2.736 4.451 4.097 8.234 3.04 3.783-1.056 6.23-4.13 5.466-6.866-.764-2.736-4.45-4.097-8.233-3.04-3.783 1.056-6.231 4.13-5.467 6.866ZM315.281 108.823c2.506 1.147 5.822-.729 7.407-4.192 1.586-3.462.84-7.198-1.665-8.346-2.505-1.147-5.821.73-7.407 4.192-1.585 3.462-.84 7.199 1.665 8.346ZM272.716 163.355c1.215.438 2.801-.867 3.54-2.917.74-2.049.354-4.066-.862-4.505-1.216-.439-2.801.867-3.54 2.916-.74 2.05-.354 4.067.862 4.506ZM270.518 151.803c2.165 2.664 5.3 3.701 7.003 2.317 1.702-1.384 1.328-4.665-.837-7.328-2.166-2.664-5.301-3.701-7.004-2.317-1.702 1.383-1.328 4.665.838 7.328ZM270.946 140.535c.779 2.788 4.534 4.175 8.388 3.099 3.854-1.076 6.347-4.209 5.569-6.997-.779-2.788-4.534-4.175-8.388-3.099-3.854 1.076-6.347 4.209-5.569 6.997ZM301.216 148.936c.768 2.75 4.473 4.12 8.275 3.058 3.802-1.062 6.261-4.153 5.493-6.903-.769-2.751-4.473-4.12-8.275-3.058-3.802 1.061-6.261 4.152-5.493 6.903ZM361.412 203.38c-.283 2.846.992 5.302 2.848 5.487 1.856.185 3.59-1.972 3.873-4.818.284-2.846-.991-5.302-2.847-5.487-1.856-.185-3.591 1.972-3.874 4.818ZM232.062 40.767c1.775.32 3.636-1.76 4.158-4.646.522-2.886-.494-5.486-2.268-5.807-1.775-.32-3.637 1.76-4.158 4.646-.522 2.886.494 5.486 2.268 5.807ZM244.258 86.77c.733 1.74 3.623 2.185 6.455.992 2.832-1.192 4.533-3.57 3.8-5.31-.732-1.74-3.622-2.185-6.454-.992-2.832 1.192-4.533 3.57-3.801 5.31ZM244.102 111.467c-.437 4.183 1.171 7.78 3.592 8.033 2.421.253 4.738-2.934 5.175-7.117.438-4.184-1.171-7.781-3.592-8.034-2.42-.253-4.737 2.934-5.175 7.118ZM304.974 164.146c.675 1.601 3.011 2.146 5.219 1.216 2.207-.93 3.451-2.981 2.776-4.583-.674-1.601-3.01-2.146-5.218-1.216-2.208.929-3.451 2.981-2.777 4.583ZM261.506 79.164c.817 2.452 2.75 4.017 4.318 3.495 1.568-.522 2.176-2.934 1.359-5.386-.817-2.453-2.75-4.018-4.318-3.495-1.567.522-2.176 2.933-1.359 5.386ZM199.895 53.457c.808 1.92 3.418 2.652 5.829 1.636 2.411-1.015 3.71-3.393 2.902-5.312-.808-1.919-3.417-2.651-5.828-1.636-2.411 1.015-3.711 3.393-2.903 5.312ZM175.013 114.656c.684 1.629 3.39 2.046 6.044.931 2.655-1.114 4.253-3.337 3.569-4.966-.683-1.628-3.389-2.045-6.044-.931-2.654 1.115-4.252 3.338-3.569 4.966ZM177.453 165.655c2.42 2.985 5.725 4.316 7.381 2.973 1.656-1.343 1.037-4.851-1.383-7.836-2.42-2.985-5.725-4.316-7.381-2.973-1.657 1.342-1.037 4.851 1.383 7.836ZM210.489 119.965c3.588 1.531 7.181 1.168 8.026-.811.844-1.978-1.379-4.824-4.967-6.355-3.588-1.532-7.181-1.169-8.025.81-.845 1.979 1.379 4.824 4.966 6.356ZM330.029 170.262c1.286 3.064 5.758 4.109 9.987 2.334 4.23-1.775 6.616-5.699 5.329-8.763-1.286-3.064-5.757-4.109-9.987-2.334-4.229 1.775-6.615 5.699-5.329 8.763ZM198.12 102.673c.209 2.146 3.098 3.621 6.453 3.294 3.354-.326 5.905-2.33 5.696-4.475-.208-2.145-3.097-3.62-6.452-3.294-3.355.326-5.905 2.33-5.697 4.475ZM199.392 115.884c1.719.557 3.736-.917 4.505-3.291.769-2.375-.001-4.751-1.72-5.308-1.72-.557-3.737.917-4.506 3.291-.769 2.375.001 4.751 1.721 5.308ZM322.43 169.905c1.918.621 4.169-1.024 5.028-3.675.858-2.651-.001-5.303-1.919-5.924-1.918-.622-4.169 1.024-5.027 3.674-.859 2.651 0 5.304 1.918 5.925ZM364.777 192.769c1.94.629 4.216-1.035 5.084-3.715.868-2.68-.001-5.362-1.941-5.99-1.94-.629-4.217 1.034-5.085 3.715-.868 2.68.001 5.362 1.942 5.99ZM175.263 48.412c1.005 2.395 4.983 3.008 8.885 1.37 3.901-1.637 6.25-4.906 5.245-7.3-1.005-2.395-4.983-3.008-8.885-1.37-3.902 1.637-6.25 4.906-5.245 7.3ZM248.118 142.179c1.671.399 3.586-1.621 4.276-4.512.69-2.891-.106-5.558-1.777-5.957-1.671-.399-3.586 1.621-4.276 4.512-.69 2.891.106 5.558 1.777 5.957ZM255.128 171.059c2.363 1.395 4.918 1.443 5.707.107.789-1.336-.486-3.551-2.849-4.946-2.362-1.395-4.917-1.443-5.706-.107-.789 1.336.486 3.551 2.848 4.946ZM330.478 67.71c2.978 1.611 6.849.225 8.647-3.096 1.798-3.322.841-7.321-2.136-8.933-2.978-1.612-6.85-.226-8.648 3.096-1.798 3.321-.841 7.32 2.137 8.933ZM255.413 162.441c2.055 3.343 5.225 5.128 7.082 3.988 1.856-1.141 1.695-4.776-.36-8.119-2.054-3.343-5.225-5.129-7.081-3.988-1.856 1.141-1.695 4.776.359 8.119ZM235.794 81.56c2.077 3.38 5.282 5.184 7.158 4.031 1.876-1.153 1.713-4.827-.364-8.206-2.077-3.38-5.282-5.185-7.158-4.032-1.876 1.153-1.713 4.828.364 8.207ZM274.393 173.632c.459 1.668 2.697 2.507 4.999 1.874 2.303-.633 3.797-2.498 3.339-4.166-.459-1.668-2.697-2.507-4.999-1.874-2.303.633-3.797 2.499-3.339 4.166ZM238.039 158.94c1.994 2.114 4.728 2.774 6.108 1.473 1.38-1.3.882-4.069-1.112-6.184-1.994-2.114-4.728-2.774-6.108-1.473s-.882 4.069 1.112 6.184ZM293.238 172.486c1.682.536 3.753-1.25 4.627-3.989.874-2.739.22-5.395-1.462-5.931-1.681-.536-3.752 1.25-4.626 3.989-.874 2.739-.22 5.394 1.461 5.931ZM309.01 182.774c1.762.562 3.933-1.31 4.85-4.182.916-2.872.23-5.656-1.532-6.218-1.762-.563-3.934 1.31-4.85 4.182-.917 2.872-.231 5.656 1.532 6.218ZM133.576 158.449c.12 3.88 2.272 6.961 4.805 6.883 2.534-.079 4.49-3.287 4.37-7.167-.12-3.88-2.272-6.961-4.805-6.882-2.534.078-4.49 3.287-4.37 7.166ZM188.162 195.369c.116 4.221 2.443 7.582 5.197 7.506 2.755-.075 4.895-3.558 4.779-7.78-.116-4.221-2.443-7.582-5.197-7.506-2.755.075-4.895 3.558-4.779 7.78ZM199.44 206.272c1.614.515 3.602-1.195 4.44-3.82.837-2.625.207-5.171-1.408-5.686-1.614-.515-3.602 1.195-4.44 3.82-.837 2.625-.207 5.171 1.408 5.686ZM145.987 75.602c.125 4.027 2.355 7.225 4.981 7.144 2.627-.082 4.655-3.412 4.53-7.438-.125-4.027-2.355-7.225-4.981-7.144-2.627.082-4.655 3.412-4.53 7.438ZM150.505 67.078c1.663.53 3.711-1.233 4.574-3.94.864-2.706.216-5.33-1.447-5.86-1.663-.53-3.711 1.233-4.574 3.94-.863 2.706-.215 5.33 1.447 5.86ZM5.55 178.998c1.877 1.114 4.783-.316 6.492-3.195 1.709-2.878 1.573-6.115-.304-7.229-1.877-1.114-4.784.316-6.492 3.195-1.71 2.878-1.573 6.115.304 7.229ZM12.235 168.407c.913 1.093 3.093.778 4.87-.705 1.776-1.483 2.477-3.571 1.565-4.664-.913-1.094-3.093-.778-4.87.704-1.776 1.483-2.477 3.572-1.565 4.665ZM280.882 97.751c1.77.422 3.795-1.713 4.525-4.77.729-3.056-.113-5.876-1.883-6.298-1.769-.423-3.794 1.713-4.524 4.77-.729 3.056.113 5.876 1.882 6.298ZM296.83 102.759c1.908 3.105 4.854 4.764 6.578 3.704 1.724-1.059 1.575-4.436-.334-7.542s-4.854-4.764-6.578-3.705c-1.725 1.06-1.575 4.437.334 7.543ZM249.308 125.984c.472 2.435 2.118 4.164 3.676 3.862 1.557-.302 2.437-2.521 1.965-4.956-.472-2.435-2.118-4.164-3.676-3.862-1.557.302-2.437 2.521-1.965 4.956ZM279.812 154.28c-.075 2.258 2.726 4.185 6.258 4.302 3.531.118 6.454-1.618 6.53-3.877.075-2.259-2.727-4.185-6.258-4.302-3.531-.118-6.455 1.618-6.53 3.877ZM95.524 139.502c1.12.404 2.582-.799 3.264-2.688.682-1.89.326-3.749-.795-4.154-1.121-.404-2.583.799-3.265 2.688-.682 1.889-.326 3.749.796 4.154ZM93.145 128.297c2.214 2.724 5.42 3.784 7.162 2.368 1.742-1.415 1.359-4.771-.855-7.495-2.214-2.723-5.42-3.784-7.162-2.368s-1.36 4.771.855 7.495ZM102.557 130.694c-.075 2.239 2.702 4.149 6.203 4.265 3.5.117 6.398-1.604 6.472-3.843.075-2.24-2.702-4.15-6.203-4.266-3.5-.117-6.398 1.604-6.472 3.844ZM283.714 246.684c1.209.436 2.785-.863 3.521-2.901.735-2.039.352-4.045-.856-4.481-1.209-.436-2.785.863-3.521 2.901-.735 2.039-.352 4.045.856 4.481ZM281.371 235.267c2.258 2.778 5.529 3.859 7.307 2.414 1.778-1.445 1.389-4.869-.869-7.646-2.258-2.778-5.529-3.858-7.307-2.413-1.778 1.445-1.389 4.868.869 7.645ZM290.827 237.632c-.074 2.247 2.712 4.163 6.224 4.28 3.512.117 6.419-1.61 6.494-3.857.075-2.247-2.711-4.164-6.223-4.28-3.512-.117-6.42 1.61-6.495 3.857ZM75.5 156.401c2.097 2.58 5.133 3.585 6.781 2.245 1.65-1.34 1.286-4.518-.81-7.097-2.097-2.58-5.134-3.585-6.782-2.245-1.649 1.34-1.286 4.518.811 7.097ZM76.274 145.089c.73 2.613 4.249 3.913 7.86 2.904 3.612-1.008 5.948-3.944 5.219-6.557-.73-2.613-4.25-3.913-7.861-2.904-3.612 1.008-5.948 3.944-5.218 6.557ZM64.692 163.181c1.95 3.172 4.957 4.866 6.718 3.784 1.76-1.082 1.607-4.531-.342-7.702-1.95-3.172-4.957-4.866-6.718-3.784-1.76 1.082-1.607 4.53.342 7.702ZM84.621 158.932c-.076 2.282 2.757 4.228 6.327 4.347 3.57.119 6.525-1.635 6.6-3.917.077-2.282-2.756-4.228-6.326-4.347-3.57-.118-6.525 1.635-6.6 3.917ZM291.74 136.344c2.443 1.16 5.724-.637 7.327-4.014 1.604-3.378.922-7.056-1.521-8.216-2.444-1.16-5.725.637-7.328 4.015-1.603 3.377-.922 7.055 1.522 8.215ZM273.088 113.859c1.744 1.85 4.137 2.427 5.345 1.288 1.208-1.139.773-3.562-.971-5.412s-4.137-2.426-5.345-1.287c-1.208 1.138-.774 3.561.971 5.411ZM359.793 41.779c1.698.307 3.48-1.686 3.98-4.45.5-2.765-.472-5.255-2.17-5.562-1.699-.307-3.481 1.685-3.981 4.45-.499 2.765.473 5.255 2.171 5.562ZM341.396 56.4c.616 1.462 3.043 1.835 5.422.834 2.379-1.002 3.808-3 3.193-4.462-.616-1.462-3.044-1.836-5.423-.834-2.379 1.002-3.808 3-3.192 4.462ZM385.165 107.562c-.316 3.021.845 5.618 2.592 5.801 1.748.183 3.42-2.119 3.736-5.14.316-3.021-.845-5.619-2.592-5.801-1.748-.183-3.42 2.118-3.736 5.14ZM371.733 89.901c3.47 1.482 6.944 1.133 7.76-.778.816-1.912-1.336-4.662-4.806-6.143-3.47-1.481-6.944-1.133-7.76.779-.816 1.91 1.336 4.661 4.806 6.142ZM359.686 59.978c2.164 2.914 5.322 4.234 7.052 2.949 1.73-1.285 1.378-4.69-.786-7.604-2.164-2.914-5.322-4.234-7.052-2.949-1.731 1.286-1.379 4.69.786 7.604ZM355.666 88.343c2.258.866 4.873-.477 5.839-3 .967-2.522-.081-5.268-2.339-6.134-2.259-.865-4.873.478-5.84 3-.966 2.523.081 5.269 2.34 6.134ZM373.5 102.537c2.42 2.985 5.724 4.316 7.38 2.973 1.657-1.343 1.038-4.851-1.383-7.836-2.42-2.985-5.724-4.316-7.381-2.973-1.656 1.343-1.037 4.851 1.384 7.836Z"/><path fill="#2A5EBC" d="M348.578 78.974c.671 1.594 2.999 2.135 5.2 1.209 2.2-.927 3.44-2.97 2.769-4.565-.672-1.594-3-2.135-5.2-1.209-2.201.927-3.441 2.97-2.769 4.565ZM283.619 65.452c.636 1.509 2.839 2.02 4.922 1.144 2.083-.877 3.256-2.811 2.621-4.32-.635-1.509-2.839-2.02-4.921-1.144-2.083.877-3.257 2.811-2.622 4.32ZM348.255 178.957c.861 2.585 2.898 4.234 4.55 3.684 1.652-.551 2.294-3.092 1.433-5.677-.861-2.585-2.899-4.234-4.551-3.684-1.652.551-2.293 3.092-1.432 5.677ZM369.216 48.679c.227 2.334 3.368 3.938 7.016 3.584 3.647-.355 6.42-2.535 6.193-4.869-.227-2.334-3.368-3.938-7.015-3.584-3.648.355-6.421 2.535-6.194 4.869ZM365.921 74.8c2.791.905 6.066-1.49 7.316-5.349 1.249-3.858 0-7.718-2.791-8.622-2.791-.904-6.066 1.491-7.315 5.35-1.25 3.858-.001 7.718 2.79 8.622ZM393.711 101.855c3.767 3.077 8.449 3.578 10.456 1.12 2.007-2.457.58-6.944-3.188-10.02-3.768-3.078-8.449-3.58-10.456-1.121-2.007 2.457-.58 6.944 3.188 10.021ZM208.139 243.045c1.144 2.192 3.36 3.297 4.948 2.468 1.588-.829 1.948-3.278.804-5.471-1.144-2.192-3.36-3.297-4.948-2.468-1.588.83-1.948 3.279-.804 5.471ZM202.772 233.66c1.925 2.748 4.853 4.018 6.539 2.837 1.686-1.182 1.492-4.367-.433-7.115s-4.853-4.018-6.539-2.836c-1.686 1.181-1.492 4.366.433 7.114ZM355.113 154.984c-.337 3.222.9 5.991 2.763 6.186 1.863.194 3.646-2.259 3.983-5.481.336-3.221-.901-5.991-2.764-6.185-1.863-.195-3.646 2.259-3.982 5.48ZM345.865 129.845c3.488 1.489 7.057.959 7.971-1.184.915-2.142-1.171-5.086-4.659-6.575-3.488-1.489-7.057-.959-7.972 1.184-.914 2.142 1.172 5.086 4.66 6.575ZM340.16 146.531c3.434 4.235 8.125 6.122 10.479 4.214 2.354-1.909 1.478-6.889-1.956-11.125-3.434-4.235-8.126-6.121-10.479-4.213-2.354 1.908-1.478 6.889 1.956 11.124ZM162.238 70.84c.994 2.37 4.929 2.977 8.788 1.358 3.859-1.62 6.181-4.854 5.186-7.224-.994-2.37-4.929-2.977-8.788-1.358-3.859 1.62-6.181 4.854-5.186 7.224ZM371.003 121.67c.847 2.54 2.848 4.162 4.471 3.621 1.623-.541 2.252-3.039 1.406-5.579-.846-2.541-2.848-4.162-4.471-3.622-1.623.541-2.252 3.039-1.406 5.58ZM343.677 99.226c.229 2.357 3.403 3.977 7.09 3.619 3.686-.359 6.488-2.56 6.259-4.918-.23-2.357-3.404-3.977-7.09-3.619-3.686.359-6.488 2.56-6.259 4.918ZM122.434 133.593c1.39 1.087 3.898.201 5.603-1.978 1.704-2.18 1.959-4.828.569-5.915-1.39-1.087-3.899-.201-5.603 1.978-1.705 2.18-1.959 4.828-.569 5.915ZM138.183 139.834c2.32.889 5.006-.49 5.998-3.081.993-2.591-.083-5.412-2.403-6.301-2.32-.889-5.005.491-5.998 3.081-.993 2.591.083 5.413 2.403 6.301Z"/><path fill="#2A5EBC" d="M131.224 130.31c.655 1.555 2.926 2.082 5.073 1.178 2.147-.904 3.357-2.897 2.702-4.452-.655-1.555-2.926-2.083-5.073-1.179-2.147.904-3.357 2.898-2.702 4.453ZM321.119 94.025c.707 1.68 2.992 2.32 5.104 1.432 2.111-.89 3.249-2.972 2.542-4.652-.708-1.68-2.993-2.32-5.104-1.431-2.111.889-3.25 2.971-2.542 4.65ZM116.738 111.502c.741 3.751 3.539 6.358 6.25 5.822 2.71-.535 4.307-4.01 3.566-7.761-.741-3.751-3.539-6.358-6.25-5.822-2.71.535-4.307 4.01-3.566 7.761ZM118.94 102.033c1.635.997 3.977.14 5.231-1.915 1.253-2.054.944-4.529-.691-5.527-1.636-.997-3.978-.14-5.231 1.915-1.254 2.055-.944 4.529.691 5.527ZM339.216 115.682c1.731.56 3.761-.923 4.535-3.312.773-2.389-.002-4.781-1.732-5.341-1.731-.56-3.761.922-4.535 3.312-.773 2.389.002 4.78 1.732 5.341ZM361.558 137.72c2.08 1.699 4.665 1.975 5.774.617 1.109-1.357.322-3.835-1.759-5.534-2.08-1.699-4.665-1.975-5.774-.617s-.321 3.835 1.759 5.534ZM367.055 155.57c2.432.58 5.216-2.355 6.218-6.556 1.003-4.2-.155-8.076-2.587-8.657-2.431-.58-5.216 2.355-6.218 6.556-1.003 4.2.155 8.076 2.587 8.657ZM374.62 167.111c.007 5.72 2.661 10.353 5.927 10.348 3.267-.004 5.908-4.644 5.901-10.364-.008-5.719-2.661-10.352-5.928-10.348-3.266.004-5.907 4.644-5.9 10.364ZM210.864 91.779c-.312 2.979.834 5.54 2.558 5.72 1.724.18 3.375-2.089 3.686-5.068.311-2.979-.834-5.54-2.559-5.72-1.724-.18-3.374 2.088-3.685 5.068ZM196.983 85.33c3.79 4.674 8.965 6.758 11.559 4.655 2.594-2.103 1.625-7.597-2.165-12.272-3.79-4.674-8.965-6.758-11.559-4.655-2.594 2.103-1.625 7.598 2.165 12.272ZM222.561 92.291c2.421.578 5.192-2.344 6.19-6.526.998-4.182-.154-8.04-2.575-8.618-2.42-.578-5.191 2.344-6.19 6.526-.998 4.182.155 8.04 2.575 8.618ZM230.094 103.879c.008 5.735 2.671 10.381 5.949 10.377 3.277-.004 5.929-4.657 5.921-10.392-.007-5.735-2.671-10.381-5.948-10.377-3.278.005-5.929 4.657-5.922 10.392ZM363.48 170c.561 2.892 2.512 4.945 4.359 4.587 1.846-.358 2.888-2.992 2.328-5.883-.561-2.891-2.512-4.945-4.359-4.587-1.846.358-2.888 2.992-2.328 5.883ZM323.439 137.125c2.655 1.308 5.46 1.046 6.263-.585.804-1.632-.697-4.015-3.353-5.324-2.655-1.308-5.46-1.046-6.264.586-.803 1.632.698 4.015 3.354 5.323ZM395.687 56.564c.882 2.047 4.299 2.543 7.633 1.107 3.334-1.437 5.321-4.26 4.44-6.307-.882-2.048-4.3-2.543-7.633-1.107-3.334 1.436-5.322 4.26-4.44 6.307ZM429.927 53.858c2.417 1.607 5.177 1.705 6.165.22.987-1.486-.171-3.993-2.588-5.6-2.417-1.607-5.178-1.705-6.165-.22-.988 1.486.171 3.993 2.588 5.6ZM398.253 38.632c2.182 2.685 5.344 3.73 7.061 2.334 1.718-1.397 1.342-4.705-.841-7.39-2.182-2.684-5.343-3.729-7.061-2.333-1.718 1.397-1.341 4.705.841 7.39ZM418.001 66.836c3.974 2.642 8.628 2.628 10.396-.03 1.767-2.66-.021-6.956-3.995-9.598-3.974-2.642-8.628-2.628-10.395.031-1.768 2.659.021 6.956 3.994 9.597ZM230.533 157.334c2.122 1.042 4.515.519 5.344-1.169.83-1.688-.219-3.902-2.341-4.944-2.122-1.043-4.515-.52-5.344 1.168-.829 1.688.219 3.902 2.341 4.945Z"/><path fill="#2A5EBC" d="M216.884 159.182c3.958 2.631 8.594 2.617 10.355-.033 1.761-2.649-.02-6.929-3.977-9.56-3.958-2.631-8.593-2.616-10.355.033-1.761 2.649.02 6.93 3.977 9.56ZM417.04 37.62c.477 1.707 2.776 2.556 5.135 1.898 2.36-.66 3.886-2.578 3.409-4.285-.477-1.707-2.776-2.556-5.135-1.897-2.36.659-3.886 2.577-3.409 4.284ZM318.576 125.3c.491 2.531 2.197 4.328 3.812 4.015 1.614-.313 2.526-2.618 2.035-5.148-.491-2.531-2.197-4.328-3.812-4.015-1.615.313-2.526 2.618-2.035 5.148ZM391.146 124.603c1.941 2.058 4.603 2.7 5.946 1.434 1.343-1.267.858-3.962-1.082-6.02-1.941-2.058-4.603-2.7-5.946-1.434-1.343 1.266-.858 3.962 1.082 6.02ZM252.096 37.676c-.349 3.338.932 6.207 2.862 6.408 1.929.202 3.775-2.34 4.124-5.678.348-3.337-.933-6.206-2.862-6.408-1.93-.201-3.776 2.341-4.124 5.678ZM226.812 24.998c2.603 3.21 6.158 4.642 7.941 3.197 1.782-1.446 1.117-5.22-1.486-8.43-2.603-3.21-6.158-4.642-7.941-3.196-1.782 1.445-1.117 5.22 1.486 8.43ZM261.053 24.063c.813 2.441 2.737 4 4.298 3.48 1.56-.52 2.166-2.921 1.352-5.363-.813-2.441-2.737-3.999-4.298-3.48-1.56.52-2.166 2.921-1.352 5.363ZM246.309 20.995c2.221 1.814 4.98 2.11 6.162.663 1.182-1.448.34-4.092-1.881-5.906-2.221-1.813-4.98-2.11-6.162-.662-1.183 1.448-.341 4.091 1.881 5.905ZM310.01 72.497c.51 1.854 3.374 2.684 6.396 1.853 3.022-.831 5.059-3.008 4.549-4.863-.51-1.854-3.373-2.684-6.396-1.853-3.022.831-5.059 3.008-4.549 4.863ZM270.129 30.617c1.686.403 3.617-1.633 4.312-4.546.696-2.913-.108-5.602-1.794-6.004-1.686-.403-3.617 1.633-4.312 4.546-.696 2.914.107 5.602 1.794 6.004ZM265.335 60.397c2.313 4.148 6.185 6.396 8.649 5.022 2.464-1.374 2.586-5.85.274-9.997-2.313-4.147-6.185-6.395-8.649-5.021-2.463 1.374-2.586 5.85-.274 9.996ZM300.627 75.623c2.376 1.285 5.898-.622 7.867-4.26 1.969-3.638 1.64-7.63-.736-8.915-2.375-1.286-5.897.62-7.867 4.259-1.969 3.638-1.639 7.63.736 8.916ZM400.47 78.94c.492 1.787 3.25 2.587 6.16 1.787 2.91-.8 4.871-2.898 4.38-4.686-.491-1.787-3.249-2.587-6.16-1.787-2.91.8-4.871 2.898-4.38 4.685ZM391.036 81.841c2.277 1.233 5.653-.596 7.541-4.085 1.888-3.488 1.573-7.315-.703-8.547-2.277-1.233-5.654.596-7.542 4.085-1.888 3.488-1.573 7.315.704 8.547ZM292.816 35.079c1.885 3.066 4.791 4.704 6.493 3.658 1.701-1.045 1.552-4.378-.332-7.445-1.885-3.066-4.791-4.704-6.493-3.658-1.701 1.045-1.552 4.379.332 7.445ZM300.652 51.47c.919 3.343 5.406 5.025 10.022 3.756 4.616-1.27 7.612-5.009 6.693-8.352-.919-3.343-5.406-5.025-10.022-3.755-4.616 1.269-7.612 5.008-6.693 8.351ZM259.384 45.413c.582 3.005 2.61 5.14 4.529 4.768 1.918-.372 3.001-3.11 2.418-6.115-.583-3.005-2.61-5.14-4.529-4.768-1.918.372-3.001 3.11-2.418 6.115ZM282.002 75.123c-.074 2.224 2.681 4.12 6.155 4.236 3.473.115 6.348-1.594 6.422-3.818.074-2.224-2.681-4.12-6.154-4.236-3.474-.115-6.349 1.594-6.423 3.818ZM299.473 90.54c.952 3.463 5.254 5.3 9.609 4.102 4.354-1.197 7.112-4.974 6.16-8.437-.952-3.463-5.254-5.3-9.608-4.102-4.355 1.197-7.113 4.975-6.161 8.438ZM100.815 115.18c.503 1.829 3.325 2.647 6.302 1.828 2.978-.819 4.984-2.964 4.481-4.793-.502-1.828-3.324-2.647-6.301-1.828-2.978.819-4.984 2.965-4.482 4.793ZM91.383 118.289c2.355 1.275 5.847-.616 7.8-4.224 1.952-3.607 1.626-7.565-.73-8.84-2.354-1.274-5.846.617-7.799 4.224-1.953 3.608-1.626 7.566.729 8.84ZM99.35 150.274c.94 3.418 5.183 5.232 9.478 4.051s7.014-4.909 6.075-8.327c-.94-3.418-5.184-5.232-9.479-4.051-4.294 1.181-7.014 4.909-6.074 8.327Z"/><path fill="#2A5EBC" d="M283.474 41.848c3.297 3.498 7.819 4.59 10.099 2.439 2.281-2.15 1.457-6.729-1.84-10.226-3.297-3.497-7.819-4.588-10.1-2.438-2.28 2.15-1.456 6.728 1.841 10.225ZM330.127 52.284c1.652.527 3.686-1.225 4.543-3.913.858-2.687.214-5.293-1.438-5.82-1.651-.527-3.685 1.224-4.543 3.912-.857 2.688-.214 5.294 1.438 5.82ZM239.028 8.833c2.144 3.489 5.454 5.35 7.392 4.159 1.939-1.192 1.773-4.985-.371-8.473-2.144-3.489-5.453-5.35-7.392-4.159-1.939 1.192-1.772 4.985.371 8.473ZM310.958 31.637c-.074 2.216 2.679 4.106 6.148 4.221 3.47.116 6.342-1.587 6.416-3.803.073-2.216-2.679-4.107-6.149-4.222-3.469-.115-6.341 1.588-6.415 3.804ZM340.751 41.464c.495 1.798 2.729 2.752 4.99 2.13 2.261-.622 3.694-2.584 3.199-4.382-.495-1.799-2.729-2.753-4.99-2.13-2.261.621-3.693 2.583-3.199 4.382ZM254.6 97.383c1.006 3.657 5.544 5.597 10.138 4.334 4.593-1.263 7.501-5.251 6.496-8.908-1.006-3.656-5.544-5.597-10.138-4.334-4.593 1.263-7.501 5.251-6.496 8.908ZM173.023 132.649c-.453 4.33 1.212 8.053 3.717 8.315 2.506.261 4.904-3.037 5.357-7.367.452-4.33-1.212-8.052-3.718-8.314-2.506-.262-4.904 3.036-5.356 7.366ZM179.6 124.293c2.005 1.637 4.496 1.905 5.563.598 1.067-1.306.307-3.693-1.698-5.331-2.006-1.637-4.496-1.905-5.564-.599-1.067 1.307-.306 3.694 1.699 5.332ZM191.086 304.518c-.306 2.925.819 5.44 2.513 5.617 1.693.177 3.314-2.051 3.619-4.976.306-2.926-.819-5.44-2.513-5.617-1.693-.177-3.314 2.051-3.619 4.976ZM260.89 130.771c.186 1.825 1.245 3.212 2.365 3.098 1.121-.115 1.878-1.686 1.693-3.511-.186-1.825-1.245-3.212-2.365-3.098-1.121.114-1.878 1.686-1.693 3.511ZM264.969 127.134c1.636.306 3.39-1.738 3.918-4.564.528-2.827-.37-5.366-2.005-5.671-1.636-.306-3.39 1.737-3.918 4.564-.529 2.826.369 5.365 2.005 5.671ZM347.709 196.914c.544 1.95 3.161 2.922 5.845 2.173 2.683-.75 4.417-2.938 3.873-4.887-.544-1.949-3.161-2.922-5.845-2.172-2.683.749-4.417 2.937-3.873 4.886Z"/><path fill="#2A5EBC" d="M340.388 201.449c2.662.862 5.785-1.421 6.976-5.099 1.192-3.677-.001-7.358-2.662-8.22-2.662-.862-5.786 1.421-6.977 5.099-1.191 3.678.001 7.358 2.663 8.22ZM194.671 132.384c2.753 1.23 5.561.936 6.273-.658.713-1.593-.941-3.882-3.693-5.112-2.752-1.23-5.561-.936-6.273.657-.712 1.594.941 3.883 3.693 5.113ZM202.464 150.3c1.942 1.844 4.603 2.194 5.943.783 1.341-1.412.853-4.051-1.089-5.895-1.942-1.844-4.603-2.194-5.943-.783-1.341 1.412-.853 4.051 1.089 5.895ZM193.534 140.316c.631 2.75 4.222 4.271 8.02 3.399 3.798-.872 6.365-3.808 5.734-6.558-.632-2.749-4.223-4.271-8.021-3.399-3.798.872-6.365 3.808-5.733 6.558ZM243.595 193.684c.565 2.024 3.277 3.035 6.058 2.258 2.78-.776 4.576-3.046 4.011-5.07-.566-2.024-3.278-3.035-6.058-2.259-2.781.777-4.577 3.047-4.011 5.071ZM255.447 197.436c1.806 1.915 4.282 2.511 5.533 1.333 1.25-1.179.8-3.687-1.005-5.602-1.806-1.914-4.283-2.511-5.533-1.332s-.8 3.686 1.005 5.601ZM373.563 29.425c3.816 2.537 8.399 2.351 10.238-.414 1.838-2.765.235-7.063-3.581-9.6-3.816-2.536-8.399-2.35-10.237.414-1.838 2.765-.235 7.063 3.58 9.6ZM360.03 16.932c.661 2.366 3.846 3.545 7.115 2.632 3.269-.913 5.383-3.572 4.722-5.938-.661-2.367-3.847-3.546-7.116-2.633-3.268.913-5.382 3.572-4.721 5.939ZM301.939 123.178c1.816 1.926 4.306 2.527 5.562 1.343 1.256-1.184.801-3.705-1.014-5.631-1.816-1.926-4.306-2.527-5.562-1.343-1.256 1.184-.802 3.705 1.014 5.631ZM232.993 60.508c.649 2.322 3.764 3.481 6.958 2.59 3.194-.893 5.258-3.499 4.61-5.82-.649-2.323-3.764-3.482-6.958-2.59-3.195.892-5.258 3.498-4.61 5.82Z"/><path fill="#2A5EBC" d="M224.942 65.817c3.081.998 6.698-1.646 8.077-5.906 1.38-4.26 0-8.521-3.081-9.52-3.082-.997-6.698 1.647-8.078 5.906-1.379 4.26 0 8.522 3.082 9.52ZM247.546 65.234c2.198 2.331 5.212 3.06 6.733 1.626 1.52-1.434.971-4.486-1.227-6.817-2.198-2.332-5.213-3.06-6.733-1.626-1.521 1.433-.972 4.486 1.227 6.817ZM106.008 190.902c1.649.298 3.379-1.637 3.864-4.321.486-2.685-.458-5.103-2.107-5.401-1.649-.298-3.379 1.637-3.864 4.321-.485 2.685.458 5.103 2.107 5.401ZM89.787 207.886c.673 1.598 3.326 2.006 5.926.911 2.6-1.095 4.163-3.278 3.49-4.876-.673-1.597-3.326-2.005-5.926-.91-2.6 1.094-4.162 3.277-3.49 4.875ZM130.249 228.006c-.298 2.852.799 5.304 2.45 5.476 1.651.173 3.231-1.999 3.529-4.851.298-2.852-.799-5.304-2.45-5.477-1.651-.172-3.231 2-3.529 4.852ZM147.266 239.4c.591 4.473 3.142 7.826 5.697 7.488 2.555-.337 4.147-4.237 3.556-8.71-.591-4.474-3.141-7.827-5.696-7.489-2.555.337-4.148 4.237-3.557 8.711ZM138.851 210.643c3.893 1.662 7.793 1.27 8.709-.876.916-2.146-1.498-5.234-5.392-6.896s-7.793-1.269-8.709.877c-.916 2.146 1.498 5.233 5.392 6.895ZM99.682 228.034c.611 1.452 2.731 1.944 4.736 1.1 2.004-.844 3.134-2.705 2.522-4.156-.611-1.452-2.731-1.945-4.736-1.101-2.004.844-3.133 2.705-2.522 4.157ZM37.96 208.43c.645 1.53 2.879 2.049 4.99 1.16s3.3-2.85 2.656-4.38c-.644-1.53-2.878-2.05-4.99-1.161-2.11.89-3.3 2.851-2.656 4.381ZM147.146 223.651c.874 2.625 2.943 4.3 4.621 3.741 1.678-.559 2.329-3.14 1.455-5.765-.875-2.626-2.944-4.3-4.622-3.742-1.677.559-2.329 3.141-1.454 5.766ZM133.896 111.829c.559 4.235 2.975 7.41 5.396 7.09 2.421-.32 3.93-4.013 3.371-8.248-.56-4.236-2.976-7.41-5.397-7.09-2.421.32-3.93 4.012-3.37 8.248ZM133.226 95.27c1.007 3.022 3.389 4.95 5.32 4.306 1.931-.643 2.68-3.614 1.674-6.636-1.007-3.021-3.388-4.95-5.319-4.306-1.932.643-2.681 3.614-1.675 6.636ZM119.801 193.711c.291 2.997 4.328 5.057 9.015 4.601 4.688-.456 8.251-3.255 7.96-6.252-.292-2.996-4.328-5.056-9.015-4.6-4.688.456-8.251 3.255-7.96 6.251ZM136.071 240.897c2.122 1.733 4.759 2.015 5.89.63 1.131-1.384.327-3.912-1.795-5.645-2.122-1.733-4.759-2.015-5.89-.63-1.131 1.385-.327 3.912 1.795 5.645ZM61.367 217.799c.767 1.823 3.245 2.519 5.535 1.554 2.29-.964 3.524-3.223 2.757-5.045-.768-1.823-3.246-2.519-5.536-1.554-2.29.964-3.524 3.223-2.756 5.045ZM168.144 242.116c1.653.394 3.545-1.602 4.227-4.459.682-2.857-.105-5.492-1.757-5.887-1.653-.394-3.545 1.602-4.227 4.459-.682 2.857.105 5.493 1.757 5.887ZM141.518 268.281c.725 3.739 3.247 6.394 5.633 5.931 2.386-.462 3.732-3.868 3.007-7.606-.725-3.738-3.247-6.394-5.632-5.931-2.386.463-3.733 3.868-3.008 7.606ZM39.803 129.852c.12 3.856 2.254 6.919 4.769 6.842 2.514-.078 4.455-3.268 4.335-7.124-.119-3.856-2.254-6.92-4.768-6.842-2.514.078-4.456 3.268-4.336 7.124Z"/><path fill="#2A5EBC" d="M34.876 120.223c.78 3.941 3.454 6.732 5.971 6.234 2.518-.498 3.926-4.097 3.146-8.038-.78-3.941-3.453-6.732-5.97-6.234-2.518.499-3.927 4.097-3.147 8.038ZM54.314 179.248c.115 3.71 2.168 6.656 4.586 6.581 2.417-.075 4.284-3.143 4.169-6.852-.115-3.709-2.168-6.656-4.586-6.581-2.417.075-4.284 3.143-4.169 6.852ZM47.598 168.876c.723 3.73 3.24 6.38 5.623 5.918 2.382-.462 3.726-3.86 3.003-7.591-.723-3.731-3.241-6.381-5.623-5.919-2.382.462-3.727 3.861-3.003 7.592ZM163.841 283.284c2.761 2.928 6.549 3.841 8.461 2.039 1.912-1.803 1.224-5.638-1.537-8.566-2.761-2.929-6.549-3.841-8.461-2.039-1.912 1.803-1.224 5.638 1.537 8.566ZM17.82 140.616c-.311 2.972.832 5.526 2.552 5.706 1.72.18 3.367-2.083 3.678-5.054.31-2.972-.833-5.526-2.553-5.706-1.72-.18-3.367 2.083-3.678 5.054ZM15.313 128.266c-.314 3.01.844 5.598 2.588 5.78 1.744.182 3.412-2.11 3.726-5.12.315-3.01-.844-5.597-2.587-5.78-1.744-.182-3.412 2.11-3.727 5.12ZM8.398 154.305c.78 2.343 2.624 3.838 4.118 3.34 1.495-.498 2.073-2.8 1.293-5.142-.78-2.343-2.624-3.838-4.118-3.34-1.495.497-2.074 2.8-1.293 5.142ZM51.362 215.623c.43 1.563 2.844 2.262 5.393 1.562 2.548-.701 4.266-2.537 3.836-4.1-.43-1.564-2.845-2.263-5.393-1.562-2.549.701-4.266 2.536-3.836 4.1ZM29.332 169.078c1.679.4 3.6-1.624 4.292-4.523.692-2.898-.108-5.573-1.787-5.973-1.678-.401-3.6 1.624-4.292 4.522-.692 2.898.108 5.573 1.787 5.974ZM11.665 215.47c1.862 3.339 4.98 5.149 6.964 4.043 1.984-1.106 2.083-4.71.22-8.049-1.861-3.34-4.98-5.15-6.963-4.044-1.984 1.107-2.083 4.71-.221 8.05ZM35.143 187.814c3.532 5.747 8.982 8.815 12.174 6.854 3.191-1.962 2.915-8.21-.617-13.957-3.531-5.747-8.982-8.815-12.173-6.854-3.192 1.962-2.916 8.21.616 13.957ZM60.544 198.952c.462 1.679 2.715 2.524 5.032 1.887s3.821-2.515 3.36-4.194c-.462-1.679-2.715-2.524-5.032-1.887-2.317.638-3.821 2.515-3.36 4.194ZM25.385 222.97c-.075 2.247 2.715 4.163 6.23 4.28 3.516.117 6.427-1.61 6.502-3.857.074-2.247-2.715-4.164-6.23-4.28-3.517-.117-6.427 1.609-6.502 3.857ZM40.173 224.288c.745 2.709 4.11 4.145 7.517 3.209 3.407-.937 5.564-3.893 4.82-6.602-.745-2.709-4.11-4.145-7.518-3.209-3.406.937-5.564 3.893-4.82 6.602ZM214.971 128.351c-.073 2.181 2.634 4.041 6.045 4.155 3.412.113 6.236-1.563 6.308-3.744.073-2.182-2.634-4.042-6.045-4.156-3.411-.113-6.235 1.563-6.308 3.745ZM229.475 129.688c.759 2.761 4.188 4.226 7.658 3.271 3.47-.954 5.668-3.966 4.909-6.727-.759-2.761-4.188-4.226-7.658-3.272-3.47.954-5.668 3.966-4.909 6.728ZM189.711 273.973c-.07 2.085 2.514 3.863 5.771 3.971 3.256.109 5.952-1.494 6.022-3.578.069-2.085-2.515-3.863-5.771-3.971-3.257-.108-5.953 1.494-6.022 3.578ZM202.396 274.967c.739 2.687 4.079 4.111 7.459 3.181 3.381-.929 5.522-3.861 4.784-6.547-.739-2.687-4.078-4.111-7.459-3.181-3.381.929-5.522 3.861-4.784 6.547ZM20.274 186.875c1.893 2.007 4.488 2.634 5.798 1.4 1.309-1.235.836-3.863-1.057-5.871-1.893-2.007-4.489-2.634-5.798-1.399-1.31 1.234-.836 3.862 1.057 5.87ZM72.949 197.93c1.585.498 3.528-1.193 4.34-3.777.813-2.584.186-5.083-1.4-5.581-1.584-.498-3.528 1.193-4.34 3.777-.812 2.584-.185 5.083 1.4 5.581ZM88.63 175.547c.475 1.731 3.148 2.506 5.969 1.73 2.82-.775 4.722-2.808 4.246-4.539-.476-1.731-3.15-2.506-5.97-1.73-2.82.775-4.722 2.808-4.246 4.539ZM37.458 157.737c1.051 1.886 2.81 2.909 3.93 2.285 1.118-.624 1.172-2.658.12-4.544-1.05-1.886-2.81-2.909-3.93-2.285-1.118.623-1.172 2.658-.12 4.544ZM31.219 146.932c.71 3.659 3.178 6.257 5.515 5.804 2.336-.453 3.655-3.786 2.946-7.445-.71-3.658-3.179-6.257-5.515-5.803-2.337.453-3.656 3.786-2.946 7.444Z"/><path fill="#2A5EBC" d="M62.397 180.548c-.066 1.977 2.386 3.662 5.477 3.765 3.09.103 5.648-1.416 5.714-3.393.066-1.976-2.386-3.661-5.476-3.764-3.09-.103-5.649 1.416-5.715 3.392ZM95.27 189.422c.494 1.799 2.728 2.753 4.989 2.131 2.261-.622 3.693-2.584 3.199-4.382-.495-1.799-2.729-2.753-4.99-2.131-2.261.622-3.693 2.584-3.199 4.382Z"/></svg>